<?xml version="1.0" encoding="utf-8"?>
<!-- Generator: Adobe Illustrator 15.1.0, SVG Export Plug-In . SVG Version: 6.00 Build 0)  -->
<!DOCTYPE svg PUBLIC "-//W3C//DTD SVG 1.1//EN" "http://www.w3.org/Graphics/SVG/1.1/DTD/svg11.dtd">
<svg version="1.1"
	 id="svg2" sodipodi:docname="alert.svg" inkscape:export-ydpi="90" inkscape:export-xdpi="90" inkscape:version="0.48.2 r9819" xmlns:dc="http://purl.org/dc/elements/1.1/" xmlns:cc="http://creativecommons.org/ns#" xmlns:rdf="http://www.w3.org/1999/02/22-rdf-syntax-ns#" xmlns:svg="http://www.w3.org/2000/svg" xmlns:sodipodi="http://sodipodi.sourceforge.net/DTD/sodipodi-0.dtd" xmlns:inkscape="http://www.inkscape.org/namespaces/inkscape" inkscape:export-filename="C:\src\MarWatch\iMartello\gadgets\stylesheets\unknown.png"
	 xmlns="http://www.w3.org/2000/svg" xmlns:xlink="http://www.w3.org/1999/xlink" x="0px" y="0px" width="13px" height="12px"
	 viewBox="0 0 13 12" enable-background="new 0 0 13 12" xml:space="preserve">
<circle fill="#CB3636" stroke="#632121" cx="6.5" cy="5.958" r="5.083"/>
<sodipodi:namedview  id="base" inkscape:window-y="-4" inkscape:window-x="1676" inkscape:window-height="1003" inkscape:window-width="1680" inkscape:current-layer="layer1" inkscape:document-units="px" inkscape:pageshadow="2" inkscape:pageopacity="0.0" showgrid="true" inkscape:cy="-24.342827" inkscape:cx="57.811158" inkscape:zoom="5.6" borderopacity="1.0" bordercolor="#666666" pagecolor="#ffffff" inkscape:window-maximized="1">
	
		<inkscape:grid  enabled="true" visible="true" id="grid2985" type="xygrid" spacingy="0.5px" spacingx="0.5px" empspacing="2" snapvisiblegridlinesonly="true">
		</inkscape:grid>
</sodipodi:namedview>
<g id="layer1" transform="translate(0,-1040.3622)" inkscape:groupmode="layer" inkscape:label="Layer 1">
	<path id="path2987" sodipodi:nodetypes="cccc" inkscape:connector-curvature="0" fill="#CB3636" stroke="#632121" d="
		M-10.5,1041.532c-1.5,0-6.5,8.5-5.5,10s10,1.5,11,0S-9,1041.532-10.5,1041.532z"/>
	
		<path id="path3768" sodipodi:ry="2.75" sodipodi:rx="0.25" sodipodi:cy="4.75" sodipodi:cx="6.75" sodipodi:type="arc" fill="#FFFFFF" d="
		M17,1045.362c0,1.656-0.447,3-1,3s-1-1.344-1-3c0-1.657,0.447-3,1-3S17,1043.705,17,1045.362z"/>
	
		<path id="path3770" inkscape:export-ydpi="90" inkscape:export-xdpi="90" sodipodi:ry="0.5" sodipodi:rx="0.5" sodipodi:cy="9.5" sodipodi:cx="6.5" sodipodi:type="arc" fill="#FFFFFF" d="
		M17,1049.862c0,0.553-0.447,1-1,1s-1-0.447-1-1s0.447-1,1-1S17,1049.309,17,1049.862z"/>
	<rect id="rect3774" x="40.584" y="1049.862" fill="#FFFFFF" width="1" height="1"/>
	<path id="path3787" sodipodi:nodetypes="ccccc" inkscape:connector-curvature="0" fill="#FFFFFF" d="M40.584,1048.862h1l0.5-5.5h-2
		L40.584,1048.862z"/>
	<text transform="matrix(1 0 0 1 -44 1040.3622)" font-family="'MyriadPro-Regular'" font-size="4">Inkscape (out of 255)</text>
	<text transform="matrix(1 0 0 1 -44 1045.3622)" font-family="'MyriadPro-Regular'" font-size="4">Critical: 0 Hue</text>
	<text transform="matrix(1 0 0 1 -44 1050.3622)" font-family="'MyriadPro-Regular'" font-size="4">Major: 20 Hue</text>
	<text transform="matrix(1 0 0 1 -44 1055.3622)" font-family="'MyriadPro-Regular'" font-size="4">Minor: 40 Hue</text>
	<text transform="matrix(1 0 0 1 -44 1060.3622)" font-family="'MyriadPro-Regular'" font-size="4">Unknown: Sat 0, border lightness 125, core lightness 200</text>
	<text transform="matrix(1 0 0 1 -44 1070.3622)" font-family="'MyriadPro-Regular'" font-size="4">Stroke: 1px for low res, .5px for hi res</text>
	<g id="flowRoot3780">
	</g>
</g>
<g>
	<path fill="#FFFFFF" d="M30.537,5.65l-1.166,2.245l1.412,2.454h-2.844c-0.281-0.621-0.496-1.154-0.643-1.602
		c-0.193,0.559-0.406,1.092-0.635,1.602h-2.445l1.26-2.454l-1.26-2.245h2.445c0.395,0.961,0.605,1.506,0.635,1.636
		c0.283-0.802,0.496-1.347,0.643-1.636H30.537z"/>
</g>
<path id="path3787_1_" sodipodi:nodetypes="ccccc" inkscape:connector-curvature="0" fill="#FFFFFF" d="M26.561-0.767l0.471-0.472
	l-2.356-2.829l-0.942,0.943L26.561-0.767z"/>
<path id="path3787_2_" sodipodi:nodetypes="ccccc" inkscape:connector-curvature="0" fill="#FFFFFF" d="M26.633-1.239l0.472,0.473
	l2.829-2.357L28.99-4.066L26.633-1.239z"/>
<path id="path3787_4_" sodipodi:nodetypes="ccccc" inkscape:connector-curvature="0" fill="#FFFFFF" d="M23.832,1.058L24.774,2
	l2.356-2.828L26.66-1.3L23.832,1.058z"/>
<path id="path3787_3_" sodipodi:nodetypes="ccccc" inkscape:connector-curvature="0" fill="#FFFFFF" d="M29.09,2l0.943-0.942
	L27.204-1.3l-0.472,0.473L29.09,2z"/>
<line fill="none" stroke="#FFFFFF" stroke-width="1.5" x1="4.042" y1="3.229" x2="8.958" y2="8.771"/>
<line fill="none" stroke="#FFFFFF" stroke-width="1.5" x1="8.958" y1="3.229" x2="4.043" y2="8.771"/>
</svg>
