<?xml version="1.0" encoding="utf-8"?>
<!-- Generator: Adobe Illustrator 15.1.0, SVG Export Plug-In . SVG Version: 6.00 Build 0)  -->
<!DOCTYPE svg PUBLIC "-//W3C//DTD SVG 1.1//EN" "http://www.w3.org/Graphics/SVG/1.1/DTD/svg11.dtd">
<svg version="1.1"
	 id="svg2" sodipodi:docname="alert.svg" inkscape:export-ydpi="90" inkscape:export-xdpi="90" inkscape:version="0.48.2 r9819" xmlns:dc="http://purl.org/dc/elements/1.1/" xmlns:cc="http://creativecommons.org/ns#" xmlns:rdf="http://www.w3.org/1999/02/22-rdf-syntax-ns#" xmlns:svg="http://www.w3.org/2000/svg" xmlns:sodipodi="http://sodipodi.sourceforge.net/DTD/sodipodi-0.dtd" xmlns:inkscape="http://www.inkscape.org/namespaces/inkscape" inkscape:export-filename="C:\src\MarWatch\iMartello\gadgets\stylesheets\unknown.png"
	 xmlns="http://www.w3.org/2000/svg" xmlns:xlink="http://www.w3.org/1999/xlink" x="0px" y="0px" width="13px" height="12px"
	 viewBox="0 0 13 12" enable-background="new 0 0 13 12" xml:space="preserve">
<g>
	<path fill="#4091ED" d="M11.459,10c0,0.55-0.45,1-1,1h-8c-0.55,0-1-0.45-1-1V2c0-0.55,0.45-1,1-1h8c0.55,0,1,0.45,1,1V10z"/>
	<path fill="none" stroke="#284D78" d="M11.459,10c0,0.55-0.45,1-1,1h-8c-0.55,0-1-0.45-1-1V2c0-0.55,0.45-1,1-1h8
		c0.55,0,1,0.45,1,1V10z"/>
</g>
<sodipodi:namedview  id="base" inkscape:window-y="-4" inkscape:window-x="1676" inkscape:window-height="1003" inkscape:window-width="1680" inkscape:current-layer="layer1" inkscape:document-units="px" inkscape:pageshadow="2" inkscape:pageopacity="0.0" showgrid="true" inkscape:cy="-24.342827" inkscape:cx="57.811158" inkscape:zoom="5.6" borderopacity="1.0" bordercolor="#666666" pagecolor="#ffffff" inkscape:window-maximized="1">
	
		<inkscape:grid  enabled="true" visible="true" id="grid2985" type="xygrid" spacingy="0.5px" spacingx="0.5px" empspacing="2" snapvisiblegridlinesonly="true">
		</inkscape:grid>
</sodipodi:namedview>
<g id="layer1" transform="translate(0,-1040.3622)" inkscape:groupmode="layer" inkscape:label="Layer 1">
	
		<path id="path3768" sodipodi:ry="2.75" sodipodi:rx="0.25" sodipodi:cy="4.75" sodipodi:cx="6.75" sodipodi:type="arc" fill="#FFFFFF" d="
		M17,1045.362c0,1.656-0.447,3-1,3s-1-1.344-1-3c0-1.657,0.447-3,1-3S17,1043.705,17,1045.362z"/>
	
		<path id="path3770" inkscape:export-ydpi="90" inkscape:export-xdpi="90" sodipodi:ry="0.5" sodipodi:rx="0.5" sodipodi:cy="9.5" sodipodi:cx="6.5" sodipodi:type="arc" fill="#FFFFFF" d="
		M17,1049.862c0,0.553-0.447,1-1,1s-1-0.447-1-1s0.447-1,1-1S17,1049.309,17,1049.862z"/>
	<rect id="rect3774" x="21.833" y="1048.862" fill="#FFFFFF" width="1" height="1"/>
	<path id="path3787" sodipodi:nodetypes="ccccc" inkscape:connector-curvature="0" fill="#FFFFFF" d="M21.833,1047.862h1l0.5-5.5h-2
		L21.833,1047.862z"/>
	<text transform="matrix(1 0 0 1 -44 1040.3622)" font-family="'MyriadPro-Regular'" font-size="4">Inkscape (out of 255)</text>
	<text transform="matrix(1 0 0 1 -44 1045.3622)" font-family="'MyriadPro-Regular'" font-size="4">Critical: 0 Hue</text>
	<text transform="matrix(1 0 0 1 -44 1050.3622)" font-family="'MyriadPro-Regular'" font-size="4">Major: 20 Hue</text>
	<text transform="matrix(1 0 0 1 -44 1055.3622)" font-family="'MyriadPro-Regular'" font-size="4">Minor: 40 Hue</text>
	<text transform="matrix(1 0 0 1 -44 1060.3622)" font-family="'MyriadPro-Regular'" font-size="4">Unknown: Sat 0, border lightness 125, core lightness 200</text>
	<text transform="matrix(1 0 0 1 -44 1070.3622)" font-family="'MyriadPro-Regular'" font-size="4">Stroke: 1px for low res, .5px for hi res</text>
	<g id="flowRoot3780">
	</g>
	<path fill="#FFFFFF" d="M5.57,1047.682l-0.011-0.286c-0.033-0.561,0.154-1.133,0.649-1.716c0.352-0.429,0.638-0.792,0.638-1.155
		c0-0.385-0.253-0.649-0.803-0.66c-0.363,0-0.803,0.132-1.089,0.33l-0.374-1.199c0.407-0.231,1.056-0.451,1.837-0.451
		c1.453,0,2.124,0.803,2.124,1.716c0,0.836-0.527,1.386-0.945,1.849c-0.396,0.451-0.573,0.88-0.562,1.375v0.198H5.57z
		 M5.383,1049.211c0-0.535,0.366-0.901,0.881-0.901c0.535,0,0.881,0.366,0.891,0.901c0,0.515-0.347,0.9-0.891,0.9
		C5.74,1050.111,5.383,1049.725,5.383,1049.211z"/>
</g>
</svg>
